<svg width="159px" height="60px" viewBox="0 -15 159 60" version="1.1" xmlns="http://www.w3.org/2000/svg" xmlns:xlink="http://www.w3.org/1999/xlink">
  <!-- Generator: Sketch 42 (36781) - http://www.bohemiancoding.com/sketch -->
  <desc>Created with Sketch.</desc>
  <defs></defs>
  <g id="Group-2" stroke="none" stroke-width="1" fill="none" fill-rule="evenodd">
    <g id="Group">
      <path d="M0,15 C0,31.5685425 13.4314575,45 30,45 L30,30 C21.7157288,30 15,23.2842712 15,15 L0,15 Z" id="Combined-Shape" fill="#F8A456"></path>
      <path d="M15,0 L15,15 L0,15 C0,6.71572875 6.71572875,0 15,0 Z" id="Combined-Shape" fill="#F8A456"></path>
      <path d="M45,0 L45,15 L30,15 C30,6.71572875 36.7157288,0 45,0 Z" id="Combined-Shape" fill="#F87756"></path>
      <path d="M45,15 C45,23.2842712 38.2842712,30 30,30 L30,15 L45,15 Z" id="Combined-Shape" fill="#F87756"></path>
    </g>
    <path d="M64.354,25.698 L64.382,25.698 L67.602,17.088 L68.68,17.088 L64.886,27 L63.822,27 L60.042,17.088 L61.134,17.088 L64.354,25.698 Z M71.046,26.104 L76.352,26.104 L76.352,27 L70.038,27 L70.038,17.088 L76.184,17.088 L76.184,17.984 L71.046,17.984 L71.046,21.4 L75.848,21.4 L75.848,22.282 L71.046,22.282 L71.046,26.104 Z M86.67,25.404 C86.5019992,25.6560013 86.2990012,25.8939989 86.061,26.118 C85.8229988,26.3420011 85.5476682,26.5379992 85.235,26.706 C84.9223318,26.8740008 84.5770019,27.0069995 84.199,27.105 C83.8209981,27.2030005 83.4080022,27.252 82.96,27.252 C82.2133296,27.252 81.5226698,27.1213346 80.888,26.86 C80.2533302,26.5986654 79.7073356,26.2370023 79.25,25.775 C78.7926644,25.3129977 78.4356679,24.7646698 78.179,24.13 C77.922332,23.4953302 77.794,22.8000038 77.794,22.044 C77.794,21.2879962 77.9246654,20.5926698 78.186,19.958 C78.4473346,19.3233302 78.8089977,18.7750023 79.271,18.313 C79.7330023,17.8509977 80.2789968,17.4893346 80.909,17.228 C81.5390031,16.9666654 82.222663,16.836 82.96,16.836 C83.3240018,16.836 83.6809983,16.873333 84.031,16.948 C84.3810017,17.022667 84.7099985,17.127666 85.018,17.263 C85.3260015,17.398334 85.6059987,17.5616657 85.858,17.753 C86.1100013,17.9443343 86.3199992,18.1613321 86.488,18.404 L85.648,19.02 C85.5453328,18.8613325 85.4076675,18.7026675 85.235,18.544 C85.0623325,18.3853325 84.8593345,18.2453339 84.626,18.124 C84.3926655,18.0026661 84.1383347,17.904667 83.863,17.83 C83.5876653,17.755333 83.2913349,17.718 82.974,17.718 C82.3299968,17.718 81.7536692,17.8346655 81.245,18.068 C80.7363308,18.3013345 80.3046684,18.6163313 79.95,19.013 C79.5953316,19.4096687 79.3246676,19.8693307 79.138,20.392 C78.9513324,20.9146693 78.858,21.4653304 78.858,22.044 C78.858,22.6226696 78.9536657,23.1733307 79.145,23.696 C79.3363343,24.2186693 79.6093316,24.6783314 79.964,25.075 C80.3186684,25.4716686 80.7503308,25.7866655 81.259,26.02 C81.7676692,26.2533345 82.3393302,26.37 82.974,26.37 C83.5433362,26.37 84.0846641,26.2533345 84.598,26.02 C85.1113359,25.7866655 85.5406649,25.4133359 85.886,24.9 L86.67,25.404 Z M91.5,27 L90.492,27 L90.492,17.984 L87.174,17.984 L87.174,17.088 L94.818,17.088 L94.818,17.984 L91.5,17.984 L91.5,27 Z M105.682,22.044 C105.682,22.8000038 105.551335,23.4953302 105.29,24.13 C105.028665,24.7646698 104.667002,25.3129977 104.205,25.775 C103.742998,26.2370023 103.197003,26.5986654 102.567,26.86 C101.936997,27.1213346 101.253337,27.252 100.516,27.252 C99.778663,27.252 99.0950031,27.1213346 98.465,26.86 C97.8349969,26.5986654 97.2890023,26.2370023 96.827,25.775 C96.3649977,25.3129977 96.0033346,24.7646698 95.742,24.13 C95.4806654,23.4953302 95.35,22.8000038 95.35,22.044 C95.35,21.2879962 95.4806654,20.5926698 95.742,19.958 C96.0033346,19.3233302 96.3649977,18.7750023 96.827,18.313 C97.2890023,17.8509977 97.8349969,17.4893346 98.465,17.228 C99.0950031,16.9666654 99.778663,16.836 100.516,16.836 C101.253337,16.836 101.936997,16.9666654 102.567,17.228 C103.197003,17.4893346 103.742998,17.8509977 104.205,18.313 C104.667002,18.7750023 105.028665,19.3233302 105.29,19.958 C105.551335,20.5926698 105.682,21.2879962 105.682,22.044 Z M104.618,22.044 C104.618,21.4653304 104.524668,20.9146693 104.338,20.392 C104.151332,19.8693307 103.880668,19.4096687 103.526,19.013 C103.171332,18.6163313 102.739669,18.3013345 102.231,18.068 C101.722331,17.8346655 101.15067,17.718 100.516,17.718 C99.8813302,17.718 99.3096692,17.8346655 98.801,18.068 C98.2923308,18.3013345 97.8606684,18.6163313 97.506,19.013 C97.1513316,19.4096687 96.8806676,19.8693307 96.694,20.392 C96.5073324,20.9146693 96.414,21.4653304 96.414,22.044 C96.414,22.6226696 96.5073324,23.1733307 96.694,23.696 C96.8806676,24.2186693 97.1513316,24.675998 97.506,25.068 C97.8606684,25.460002 98.2923308,25.7726655 98.801,26.006 C99.3096692,26.2393345 99.8813302,26.356 100.516,26.356 C101.15067,26.356 101.722331,26.2393345 102.231,26.006 C102.739669,25.7726655 103.171332,25.460002 103.526,25.068 C103.880668,24.675998 104.151332,24.2186693 104.338,23.696 C104.524668,23.1733307 104.618,22.6226696 104.618,22.044 Z M108.79,27 L107.782,27 L107.782,17.088 L110.694,17.088 C111.179336,17.088 111.629665,17.1346662 112.045,17.228 C112.460335,17.3213338 112.819665,17.472999 113.123,17.683 C113.426335,17.893001 113.661999,18.1659983 113.83,18.502 C113.998001,18.8380017 114.082,19.2486642 114.082,19.734 C114.082,20.0980018 114.016667,20.4293318 113.886,20.728 C113.755333,21.0266682 113.578001,21.2856656 113.354,21.505 C113.129999,21.7243344 112.864002,21.8993327 112.556,22.03 C112.247998,22.1606673 111.912002,22.2446665 111.548,22.282 L114.446,27 L113.214,27 L110.47,22.366 L108.79,22.366 L108.79,27 Z M108.79,21.498 L110.54,21.498 C111.352004,21.498 111.977331,21.3510015 112.416,21.057 C112.854669,20.7629985 113.074,20.3220029 113.074,19.734 C113.074,19.4073317 113.013334,19.1320011 112.892,18.908 C112.770666,18.6839989 112.602668,18.5020007 112.388,18.362 C112.173332,18.2219993 111.912002,18.1193337 111.604,18.054 C111.295998,17.9886663 110.955335,17.956 110.582,17.956 L108.79,17.956 L108.79,21.498 Z" id="VECTOR" fill="#F87756"></path>
    <path d="M124.118,18.684 C123.903332,18.3853318 123.628002,18.1450009 123.292,17.963 C122.955998,17.7809991 122.550002,17.69 122.074,17.69 C121.831332,17.69 121.584001,17.727333 121.332,17.802 C121.079999,17.876667 120.851334,17.9909992 120.646,18.145 C120.440666,18.2990008 120.275001,18.4926655 120.149,18.726 C120.022999,18.9593345 119.96,19.2346651 119.96,19.552 C119.96,19.8693349 120.020666,20.1306656 120.142,20.336 C120.263334,20.5413344 120.424332,20.7163326 120.625,20.861 C120.825668,21.0056674 121.054332,21.1246662 121.311,21.218 C121.567668,21.3113338 121.835999,21.4046662 122.116,21.498 C122.461335,21.6100006 122.808998,21.7313327 123.159,21.862 C123.509002,21.9926673 123.823999,22.162999 124.104,22.373 C124.384001,22.5830011 124.612666,22.8489984 124.79,23.171 C124.967334,23.4930016 125.056,23.9013309 125.056,24.396 C125.056,24.8906691 124.960334,25.3176649 124.769,25.677 C124.577666,26.0363351 124.330335,26.3326655 124.027,26.566 C123.723665,26.7993345 123.378335,26.9719994 122.991,27.084 C122.603665,27.1960006 122.214002,27.252 121.822,27.252 C121.523332,27.252 121.224668,27.221667 120.926,27.161 C120.627332,27.100333 120.342668,27.0093339 120.072,26.888 C119.801332,26.7666661 119.549334,26.6126676 119.316,26.426 C119.082665,26.2393324 118.877334,26.0246679 118.7,25.782 L119.568,25.138 C119.782668,25.4926684 120.083665,25.7889988 120.471,26.027 C120.858335,26.2650012 121.313331,26.384 121.836,26.384 C122.088001,26.384 122.344665,26.3443337 122.606,26.265 C122.867335,26.1856663 123.102999,26.0643342 123.313,25.901 C123.523001,25.7376658 123.695666,25.5370012 123.831,25.299 C123.966334,25.0609988 124.034,24.7833349 124.034,24.466 C124.034,24.1206649 123.966334,23.8336678 123.831,23.605 C123.695666,23.3763322 123.516001,23.1850008 123.292,23.031 C123.067999,22.8769992 122.811335,22.7486672 122.522,22.646 C122.232665,22.5433328 121.929335,22.4406672 121.612,22.338 C121.285332,22.2353328 120.963335,22.1186673 120.646,21.988 C120.328665,21.8573327 120.044001,21.687001 119.792,21.477 C119.539999,21.266999 119.337001,21.0080015 119.183,20.7 C119.028999,20.3919985 118.952,20.0140022 118.952,19.566 C118.952,19.0899976 119.047666,18.6793351 119.239,18.334 C119.430334,17.9886649 119.679998,17.7040011 119.988,17.48 C120.296002,17.2559989 120.636665,17.0926672 121.01,16.99 C121.383335,16.8873328 121.751998,16.836 122.116,16.836 C122.788003,16.836 123.361998,16.9549988 123.838,17.193 C124.314002,17.4310012 124.673332,17.7133317 124.916,18.04 L124.118,18.684 Z M128.22,27 L127.212,27 L127.212,17.088 L128.22,17.088 L128.22,27 Z M138.37,18.866 C138.024665,18.5019982 137.614002,18.2196677 137.138,18.019 C136.661998,17.8183323 136.116003,17.718 135.5,17.718 C134.86533,17.718 134.293669,17.8346655 133.785,18.068 C133.276331,18.3013345 132.844668,18.6163313 132.49,19.013 C132.135332,19.4096687 131.862334,19.8693307 131.671,20.392 C131.479666,20.9146693 131.384,21.4653304 131.384,22.044 C131.384,22.6226696 131.479666,23.1733307 131.671,23.696 C131.862334,24.2186693 132.135332,24.675998 132.49,25.068 C132.844668,25.460002 133.276331,25.7726655 133.785,26.006 C134.293669,26.2393345 134.86533,26.356 135.5,26.356 C136.060003,26.356 136.573331,26.2953339 137.04,26.174 C137.506669,26.0526661 137.884665,25.8986676 138.174,25.712 L138.174,22.702 L135.864,22.702 L135.864,21.82 L139.182,21.82 L139.182,26.286 C138.640664,26.6126683 138.057336,26.8553325 137.432,27.014 C136.806664,27.1726675 136.158003,27.252 135.486,27.252 C134.73933,27.252 134.04867,27.1213346 133.414,26.86 C132.77933,26.5986654 132.233336,26.2370023 131.776,25.775 C131.318664,25.3129977 130.961668,24.7646698 130.705,24.13 C130.448332,23.4953302 130.32,22.8000038 130.32,22.044 C130.32,21.2879962 130.450665,20.5926698 130.712,19.958 C130.973335,19.3233302 131.334998,18.7750023 131.797,18.313 C132.259002,17.8509977 132.804997,17.4893346 133.435,17.228 C134.065003,16.9666654 134.748663,16.836 135.486,16.836 C136.279337,16.836 136.969997,16.9526655 137.558,17.186 C138.146003,17.4193345 138.649998,17.7459979 139.07,18.166 L138.37,18.866 Z M141.758,17.088 L142.766,17.088 L142.766,21.386 L148.17,21.386 L148.17,17.088 L149.178,17.088 L149.178,27 L148.17,27 L148.17,22.31 L142.766,22.31 L142.766,27 L141.758,27 L141.758,17.088 Z M154.988,27 L153.98,27 L153.98,17.984 L150.662,17.984 L150.662,17.088 L158.306,17.088 L158.306,17.984 L154.988,17.984 L154.988,27 Z" id="SIGHT" fill="#F8A456"></path>
  </g>
</svg>
